#!OML:ASF I:\Actors\actors\Patient Classification 2\Patient 1\Session 1\actor1.ASF
:FULLY-SPECIFIED
:DEGREES
211
root -0.461995 18.7359 5.5266 2.9159 -2.67722 -1.36823
lowerback 4.88962 0.733992 -2.71079
upperback -1.22268 0.850301 1.13502
thorax -4.06541 0.503567 2.62534
lowerneck -21.6953 -2.12844 -1.424
upperneck 9.78049 -3.17895 4.81047
head 6.58953 -1.14794 1.42566
rclavicle 7.95993e-015 -5.889e-015
rhumerus 29.3737 21.0348 -67.6507
rradius 100.006
rwrist 19.5737
rhand -33.8655 -40.098
rfingers 7.12502
rthumb -7.04975 -69.9606
lclavicle 7.95993e-015 -5.889e-015
lhumerus 48.8793 -13.7469 65.3405
lradius 67.6749
lwrist 23.105
lhand -28.4499 -76.1185
lfingers 7.12502
lthumb -1.82038 -46.1465
rfemur 0 0 0
rtibia 0
rfoot 0 0
rtoes 0
lfemur -5.82037 -4.77671 -13.6452
ltibia 21.8558
lfoot -24.0144 17.0658
ltoes -53.8468
212
root -0.463289 18.7367 5.52897 3.02943 -2.35402 -1.40118
lowerback 4.87743 0.673046 -2.80792
upperback -1.25553 0.76718 1.24399
thorax -4.09034 0.466952 2.80027
lowerneck -21.7522 -2.20063 -1.61464
upperneck 9.67424 -3.20683 4.75316
head 6.56613 -1.17501 1.43392
rclavicle 1.78972e-015 -7.64855e-016
rhumerus 29.2471 21.1025 -67.0368
rradius 102.595
rwrist 20.1534
rhand -34.535 -39.9474
rfingers 7.12502
rthumb -7.69599 -69.7874
lclavicle 1.78972e-015 -7.64855e-016
lhumerus 48.8239 -13.765 65.2719
lradius 68.0364
lwrist 23.0583
lhand -28.3174 -76.1539
lfingers 7.12502
lthumb -1.69245 -46.1809
rfemur 0 0 0
rtibia 0
rfoot 0 0
rtoes 0
lfemur -6.04219 -4.89908 -13.5653
ltibia 21.9107
lfoot -23.9477 16.9001
ltoes -53.8396
213
root -0.464734 18.738 5.53164 3.1758 -1.99372 -1.39406
lowerback 4.78317 0.580288 -2.96008
upperback -1.29307 0.639963 1.34578
thorax -4.07053 0.409096 3.0031
lowerneck -21.7405 -2.26054 -1.74066
upperneck 9.57246 -3.22811 4.63367
head 6.53083 -1.20277 1.41262
rclavicle -6.05051e-015 2.70844e-015
rhumerus 28.4555 21.1523 -67.3591
rradius 104.873
rwrist 20.8495
rhand -35.2967 -39.3415
rfingers 7.12502
rthumb -8.43109 -69.1532
lclavicle -6.05051e-015 2.70844e-015
lhumerus 48.8437 -13.71 65.1985
lradius 68.2193
lwrist 23.0894
lhand -28.2245 -76.1203
lfingers 7.12502
lthumb -1.60276 -46.1466
rfemur 0 0 0
rtibia 0
rfoot 0 0
rtoes 0
lfemur -6.29722 -4.99534 -13.5146
ltibia 21.9561
lfoot -23.8209 16.6293
ltoes -53.6864
214
root -0.465663 18.7387 5.53613 3.29218 -1.73172 -1.43949
lowerback 5.06845 0.546255 -2.77206
upperback -1.60365 0.594914 1.268
thorax -4.54862 0.392843 2.81859
lowerneck -21.6199 -2.35345 -1.821
upperneck 9.70695 -3.34406 4.6823
head 6.56172 -1.25717 1.42809
rclavicle -3.27592e-015 -1.15171e-014
rhumerus 28.2428 21.2266 -67.1019
rradius 106.849
rwrist 20.7773
rhand -35.8637 -39.8164
rfingers 7.12502
rthumb -8.97824 -69.6054
lclavicle -3.27592e-015 -1.15171e-014
lhumerus 48.6015 -13.9985 65.0206
lradius 68.3047
lwrist 23.2787
lhand -28.1868 -76.0562
lfingers 7.12502
lthumb -1.5663 -46.0822
rfemur 0 0 0
rtibia 0
rfoot 0 0
rtoes 0
lfemur -6.47597 -5.11694 -13.4225
ltibia 21.9829
lfoot -23.8237 16.4334
ltoes -53.6307
215
root -0.46646 18.7385 5.541 3.33591 -1.62018 -1.51223
lowerback 5.12517 0.499346 -2.65797
upperback -1.69643 0.538061 1.26093
thorax -4.67206 0.364401 2.75185
lowerneck -21.6188 -2.34051 -1.76653
upperneck 9.76516 -3.33078 4.59139
head 6.57718 -1.2561 1.39127
rclavicle -5.8261e-015 1.01318e-014
rhumerus 27.2796 21.3147 -67.8611
rradius 108.258
rwrist 21.4711
rhand -36.2873 -39.3486
rfingers 7.12502
rthumb -9.38701 -69.1196
lclavicle -5.8261e-015 1.01318e-014
lhumerus 48.4207 -13.9981 64.9019
lradius 68.4005
lwrist 23.4107
lhand -28.2211 -75.9186
lfingers 7.12502
lthumb -1.59947 -45.9449
rfemur 0 0 0
rtibia 0
rfoot 0 0
rtoes 0
lfemur -6.52645 -5.32774 -13.3284
ltibia 21.9972
lfoot -24.0129 16.3925
ltoes -53.4543
216
root -0.467384 18.7386 5.54408 3.34923 -1.62265 -1.544
lowerback 4.91379 0.445753 -2.70449
upperback -1.58002 0.471263 1.3185
thorax -4.42731 0.328053 2.8445
lowerneck -21.6829 -2.27758 -1.68698
upperneck 9.69932 -3.24607 4.46341
head 6.55902 -1.22387 1.34657
rclavicle -4.18632e-016 -4.42606e-015
rhumerus 27.5546 21.3929 -67.9989
rradius 108.786
rwrist 21.9212
rhand -37.6343 -39.329
rfingers 7.12502
rthumb -10.6865 -69.0372
lclavicle -4.18632e-016 -4.42606e-015
lhumerus 48.4006 -13.7431 64.871
lradius 68.4235
lwrist 23.4141
lhand -28.3379 -75.696
lfingers 7.12502
lthumb -1.71227 -45.7231
rfemur 0 0 0
rtibia 0
rfoot 0 0
rtoes 0
lfemur -6.51428 -5.53349 -13.2988
ltibia 21.9952
lfoot -24.1846 16.4951
ltoes -53.255
217
root -0.466798 18.7386 5.54457 3.35161 -1.69612 -1.52482
lowerback 4.43337 0.37619 -2.89106
upperback -1.26129 0.383905 1.4244
thorax -3.8205 0.276327 3.06753
lowerneck -21.8086 -2.18157 -1.6736
upperneck 9.47122 -3.10513 4.42684
head 6.49904 -1.16022 1.34874
rclavicle 4.56118e-015 -7.95139e-016
rhumerus 28.245 21.4027 -67.9871
rradius 108.569
rwrist 22.3826
rhand -37.8179 -39.5214
rfingers 7.12502
rthumb -10.8636 -69.2204
lclavicle 4.56118e-015 -7.95139e-016
lhumerus 48.6248 -13.2541 64.8881
lradius 68.3272
lwrist 23.3598
lhand -28.5594 -75.7156
lfingers 7.12502
lthumb -1.92618 -45.7446
rfemur 0 0 0
rtibia 0
rfoot 0 0
rtoes 0
lfemur -6.47647 -5.65113 -13.3418
ltibia 21.9665
lfoot -24.286 16.6676
ltoes -53.2467
218
root -0.465373 18.7386 5.54478 3.30402 -1.84876 -1.46987
lowerback 4.5801 0.410912 -2.78845
upperback -1.36449 0.428364 1.31917
thorax -4.01194 0.299269 2.8967
lowerneck -21.8388 -2.18022 -1.67129
upperneck 9.67309 -3.13157 4.55322
head 6.57327 -1.1582 1.38631
rclavicle -8.4301e-015 -8.80243e-015
rhumerus 28.2204 21.3552 -68.3727
rradius 107.599
rwrist 22.7936
rhand -38.0041 -39.6148
rfingers 7.12502
rthumb -11.0432 -69.3043
lclavicle -8.4301e-015 -8.80243e-015
lhumerus 48.4077 -13.3306 64.9489
lradius 68.1988
lwrist 23.3368
lhand -28.7365 -76.0271
lfingers 7.12502
lthumb -2.09727 -46.0576
rfemur 0 0 0
rtibia 0
rfoot 0 0
rtoes 0
lfemur -6.35848 -5.73925 -13.4294
ltibia 21.9199
lfoot -24.4571 16.8033
ltoes -53.0504
219
root -0.463853 18.7375 5.54527 3.22006 -2.08281 -1.42398
lowerback 4.76249 0.493128 -2.70441
upperback -1.49689 0.534971 1.23332
thorax -4.25848 0.354659 2.75084
lowerneck -21.8427 -2.18368 -1.63027
upperneck 9.93963 -3.16925 4.61589
head 6.66303 -1.16513 1.39571
rclavicle 4.52934e-015 -8.09426e-015
rhumerus 29.325 21.2986 -67.9135
rradius 105.915
rwrist 22.3605
rhand -36.808 -40.7254
rfingers 7.12502
rthumb -9.88938 -70.4731
lclavicle 4.52934e-015 -8.09426e-015
lhumerus 48.1111 -13.4963 65.1513
lradius 68.059
lwrist 23.3598
lhand -28.7577 -76.1455
lfingers 7.12502
lthumb -2.11772 -46.1762
rfemur 0 0 0
rtibia 0
rfoot 0 0
rtoes 0
lfemur -6.17761 -5.7248 -13.5238
ltibia 21.8698
lfoot -24.5905 16.9617
ltoes -52.9961
220
root -0.462176 18.7353 5.54388 3.13887 -2.34071 -1.38659
lowerback 4.50177 0.534564 -2.81846
upperback -1.32807 0.592597 1.28805
thorax -3.94157 0.379627 2.86839
lowerneck -21.8901 -2.13016 -1.53421
upperneck 9.93094 -3.10712 4.50417
head 6.66192 -1.14115 1.35105
rclavicle -6.63133e-016 1.1778e-014
rhumerus 30.1042 21.2209 -68.0054
rradius 103.567
rwrist 21.9477
rhand -36.1132 -40.6733
rfingers 7.12502
rthumb -9.21905 -70.4518
lclavicle -6.63133e-016 1.1778e-014
lhumerus 48.1158 -13.3176 65.4004
lradius 67.9064
lwrist 23.4073
lhand -28.7373 -75.9328
lfingers 7.12502
lthumb -2.09797 -45.9634
rfemur 0 0 0
rtibia 0
rfoot 0 0
rtoes 0
lfemur -6.00572 -5.48348 -13.6127
ltibia 21.8192
lfoot -24.5036 17.1053
ltoes -53.3425
221
root -0.461575 18.7342 5.54103 3.0731 -2.59555 -1.31245
lowerback 4.88123 0.633006 -2.65102
upperback -1.63625 0.717939 1.1415
thorax -4.48128 0.447936 2.60875
lowerneck -21.7754 -2.17692 -1.4599
upperneck 10.3181 -3.20614 4.48741
head 6.77211 -1.18327 1.32221
rclavicle -1.90845e-015 -1.10885e-014
rhumerus 29.3005 21.1373 -69.4292
rradius 100.698
rwrist 21.6943
rhand -35.2918 -39.7542
rfingers 7.12502
rthumb -8.42639 -69.5661
lclavicle -1.90845e-015 -1.10885e-014
lhumerus 47.6122 -13.6599 65.593
lradius 67.8175
lwrist 23.4689
lhand -28.7112 -75.6434
lfingers 7.12502
lthumb -2.07282 -45.6737
rfemur 0 0 0
rtibia 0
rfoot 0 0
rtoes 0
lfemur -5.87008 -5.111 -13.7125
ltibia 21.7754
lfoot -24.3412 17.1136
ltoes -53.5878
